<mxfile host="app.diagrams.net" modified="2021-05-22T19:05:39.413Z" agent="5.0 (Windows NT 6.1; WOW64) AppleWebKit/537.36 (KHTML, like Gecko) Chrome/90.0.4430.212 Safari/537.36" etag="jG7JlfqXXDAfGuGwRlZH" version="14.7.0" type="github">
  <diagram id="u8bC9qmBS-maa8YCKa2u" name="Page-1">
    <mxGraphModel dx="868" dy="450" grid="1" gridSize="10" guides="1" tooltips="1" connect="1" arrows="1" fold="1" page="1" pageScale="1" pageWidth="827" pageHeight="1169" math="0" shadow="0">
      <root>
        <mxCell id="0" />
        <mxCell id="1" parent="0" />
        <mxCell id="AAkMjtUTsmOGRvq4sjzj-1" value="" style="rounded=1;whiteSpace=wrap;html=1;" vertex="1" parent="1">
          <mxGeometry x="354" y="30" width="120" height="60" as="geometry" />
        </mxCell>
        <mxCell id="AAkMjtUTsmOGRvq4sjzj-4" style="edgeStyle=orthogonalEdgeStyle;rounded=0;orthogonalLoop=1;jettySize=auto;html=1;exitX=0.5;exitY=1;exitDx=0;exitDy=0;" edge="1" parent="1" source="AAkMjtUTsmOGRvq4sjzj-1">
          <mxGeometry relative="1" as="geometry">
            <mxPoint x="416" y="100" as="sourcePoint" />
            <mxPoint x="414" y="180" as="targetPoint" />
            <Array as="points">
              <mxPoint x="414" y="180" />
            </Array>
          </mxGeometry>
        </mxCell>
        <mxCell id="AAkMjtUTsmOGRvq4sjzj-2" value="Start" style="text;html=1;strokeColor=none;fillColor=none;align=center;verticalAlign=middle;whiteSpace=wrap;rounded=0;" vertex="1" parent="1">
          <mxGeometry x="380" y="40" width="70" height="40" as="geometry" />
        </mxCell>
        <mxCell id="AAkMjtUTsmOGRvq4sjzj-7" style="edgeStyle=orthogonalEdgeStyle;rounded=0;orthogonalLoop=1;jettySize=auto;html=1;exitX=0.5;exitY=1;exitDx=0;exitDy=0;entryX=0.667;entryY=-0.033;entryDx=0;entryDy=0;entryPerimeter=0;" edge="1" parent="1" source="AAkMjtUTsmOGRvq4sjzj-3" target="AAkMjtUTsmOGRvq4sjzj-5">
          <mxGeometry relative="1" as="geometry" />
        </mxCell>
        <mxCell id="AAkMjtUTsmOGRvq4sjzj-3" value="sum = 0 &lt;br&gt;count = 0&lt;br&gt;" style="shape=parallelogram;perimeter=parallelogramPerimeter;whiteSpace=wrap;html=1;fixedSize=1;" vertex="1" parent="1">
          <mxGeometry x="340" y="180" width="120" height="60" as="geometry" />
        </mxCell>
        <mxCell id="AAkMjtUTsmOGRvq4sjzj-8" style="edgeStyle=orthogonalEdgeStyle;rounded=0;orthogonalLoop=1;jettySize=auto;html=1;exitX=0.5;exitY=1;exitDx=0;exitDy=0;entryX=0.583;entryY=-0.05;entryDx=0;entryDy=0;entryPerimeter=0;" edge="1" parent="1" source="AAkMjtUTsmOGRvq4sjzj-5" target="AAkMjtUTsmOGRvq4sjzj-6">
          <mxGeometry relative="1" as="geometry" />
        </mxCell>
        <mxCell id="AAkMjtUTsmOGRvq4sjzj-5" value="input x,y,z,a,c" style="shape=parallelogram;perimeter=parallelogramPerimeter;whiteSpace=wrap;html=1;fixedSize=1;" vertex="1" parent="1">
          <mxGeometry x="320" y="340" width="120" height="60" as="geometry" />
        </mxCell>
        <mxCell id="AAkMjtUTsmOGRvq4sjzj-9" style="edgeStyle=orthogonalEdgeStyle;rounded=0;orthogonalLoop=1;jettySize=auto;html=1;exitX=0.5;exitY=1;exitDx=0;exitDy=0;" edge="1" parent="1" source="AAkMjtUTsmOGRvq4sjzj-6">
          <mxGeometry relative="1" as="geometry">
            <mxPoint x="370" y="660" as="targetPoint" />
          </mxGeometry>
        </mxCell>
        <mxCell id="AAkMjtUTsmOGRvq4sjzj-6" value="sum = x+y+z+a+c" style="shape=parallelogram;perimeter=parallelogramPerimeter;whiteSpace=wrap;html=1;fixedSize=1;" vertex="1" parent="1">
          <mxGeometry x="310" y="500" width="120" height="60" as="geometry" />
        </mxCell>
        <mxCell id="AAkMjtUTsmOGRvq4sjzj-13" style="edgeStyle=orthogonalEdgeStyle;rounded=0;orthogonalLoop=1;jettySize=auto;html=1;exitX=0.5;exitY=1;exitDx=0;exitDy=0;entryX=0.621;entryY=-0.05;entryDx=0;entryDy=0;entryPerimeter=0;" edge="1" parent="1" source="AAkMjtUTsmOGRvq4sjzj-10" target="AAkMjtUTsmOGRvq4sjzj-12">
          <mxGeometry relative="1" as="geometry">
            <mxPoint x="370" y="786" as="targetPoint" />
          </mxGeometry>
        </mxCell>
        <mxCell id="AAkMjtUTsmOGRvq4sjzj-10" value="avg = (x+y+z+a+c)/5" style="shape=parallelogram;perimeter=parallelogramPerimeter;whiteSpace=wrap;html=1;fixedSize=1;" vertex="1" parent="1">
          <mxGeometry x="300" y="660" width="140" height="60" as="geometry" />
        </mxCell>
        <mxCell id="AAkMjtUTsmOGRvq4sjzj-16" style="edgeStyle=orthogonalEdgeStyle;rounded=0;orthogonalLoop=1;jettySize=auto;html=1;exitX=0.5;exitY=1;exitDx=0;exitDy=0;entryX=0.429;entryY=0.25;entryDx=0;entryDy=0;entryPerimeter=0;" edge="1" parent="1" source="AAkMjtUTsmOGRvq4sjzj-12">
          <mxGeometry relative="1" as="geometry">
            <mxPoint x="356.03" y="970" as="targetPoint" />
          </mxGeometry>
        </mxCell>
        <mxCell id="AAkMjtUTsmOGRvq4sjzj-12" value="print avg" style="shape=parallelogram;perimeter=parallelogramPerimeter;whiteSpace=wrap;html=1;fixedSize=1;" vertex="1" parent="1">
          <mxGeometry x="298" y="810" width="116" height="60" as="geometry" />
        </mxCell>
        <mxCell id="AAkMjtUTsmOGRvq4sjzj-14" value="end" style="rounded=1;whiteSpace=wrap;html=1;" vertex="1" parent="1">
          <mxGeometry x="300" y="970" width="120" height="60" as="geometry" />
        </mxCell>
      </root>
    </mxGraphModel>
  </diagram>
</mxfile>
